<!-- Based on Lucide audio-lines, ISC License: https://lucide.dev/license -->
<svg xmlns="http://www.w3.org/2000/svg" width="160" height="160" viewBox="0 0 160 160">
  <rect width="160" height="160" rx="34" fill="#121514"/>
  <path d="M31 70c0-24 19-43 43-43h16c24 0 43 19 43 43v17c0 24-19 43-43 43H72l-19 13c-4 3-8-1-6-6l6-16c-13-8-22-23-22-40V70z" fill="#22251f"/>
  <path d="M56 67v25" stroke="#eee8da" stroke-width="9" stroke-linecap="round"/>
  <path d="M74 50v59" stroke="#eee8da" stroke-width="9" stroke-linecap="round"/>
  <path d="M92 60v42" stroke="#8fbd78" stroke-width="9" stroke-linecap="round"/>
  <path d="M110 68v24" stroke="#eee8da" stroke-width="9" stroke-linecap="round"/>
  <path d="M101 41c8-1 15 3 18 10-8 1-15-2-18-10z" fill="#8fbd78" opacity=".9"/>
</svg>
